HIERARCHY
ROOT Hips
{
	OFFSET 0.00 0.00 0.00
	CHANNELS 6 Xposition Yposition Zposition Xrotation Yrotation Zrotation
	JOINT LeftUpLeg
	{
		OFFSET 3.34807 0.00000 0.00000
		CHANNELS 3 Xrotation Yrotation Zrotation
		JOINT LeftLeg
		{
			OFFSET 0.00000 -16.98552 0.00000
			CHANNELS 3 Xrotation Yrotation Zrotation
			JOINT LeftFoot
			{
				OFFSET 0.00000 -16.83686 0.00000
				CHANNELS 3 Xrotation Yrotation Zrotation
				JOINT LeftToeBase
				{
					OFFSET 0.00000 -1.59599 5.95633
					CHANNELS 3 Xrotation Yrotation Zrotation
					End Site
					{
						OFFSET 0.00000 0.00000 2.95275
					}
				}
			}
		}
	}
	JOINT RightUpLeg
	{
		OFFSET -3.34807 0.00000 0.00000
		CHANNELS 3 Xrotation Yrotation Zrotation
		JOINT RightLeg
		{
			OFFSET 0.00000 -16.98552 0.00000
			CHANNELS 3 Xrotation Yrotation Zrotation
			JOINT RightFoot
			{
				OFFSET 0.00000 -16.83686 0.00000
				CHANNELS 3 Xrotation Yrotation Zrotation
				JOINT RightToeBase
				{
					OFFSET 0.00000 -1.59599 5.95633
					CHANNELS 3 Xrotation Yrotation Zrotation
					End Site
					{
						OFFSET 0.00000 0.00000 2.95275
					}
				}
			}
		}
	}
	JOINT Spine
	{
		OFFSET 0.00000 0.03937 0.00000
		CHANNELS 3 Xrotation Yrotation Zrotation
		JOINT Spine1
		{
			OFFSET 0.00000 7.93124 0.00000
			CHANNELS 3 Xrotation Yrotation Zrotation
			JOINT Neck
			{
				OFFSET 0.00000 8.48368 0.00000
				CHANNELS 3 Xrotation Yrotation Zrotation
				JOINT Head
				{
					OFFSET 0.00000 6.65077 0.00000
					CHANNELS 3 Xrotation Yrotation Zrotation
					End Site
					{
						OFFSET 0.00000 4.52755 0.00000
					}
				}
			}
			JOINT LeftShoulder
			{
				OFFSET 0.00000 8.48368 0.00000
				CHANNELS 3 Xrotation Yrotation Zrotation
				JOINT LeftArm
				{
					OFFSET 7.74502 -0.00003 0.00000
					CHANNELS 3 Xrotation Yrotation Zrotation
					JOINT LeftForeArm
					{
						OFFSET 12.49824 -0.00005 0.00000
						CHANNELS 3 Xrotation Yrotation Zrotation
						JOINT LeftHand
						{
							OFFSET 9.88337 -0.00004 0.00000
							CHANNELS 3 Xrotation Yrotation Zrotation
							JOINT LeftHandThumb
							{
								OFFSET 0.00000 0.00000 0.00000
								CHANNELS 3 Xrotation Yrotation Zrotation
								End Site
								{
									OFFSET 0.00000 0.00000 3.93700
								}
							}
							JOINT L_Wrist_End
							{
								OFFSET 3.93700 -0.00001 0.00000
								CHANNELS 3 Xrotation Yrotation Zrotation
							}
						}
					}
				}
			}
			JOINT RightShoulder
			{
				OFFSET 0.00000 8.48368 0.00000
				CHANNELS 3 Xrotation Yrotation Zrotation
				JOINT RightArm
				{
					OFFSET -7.74502 -0.00003 0.00000
					CHANNELS 3 Xrotation Yrotation Zrotation
					JOINT RightForeArm
					{
						OFFSET -12.49824 -0.00005 0.00000
						CHANNELS 3 Xrotation Yrotation Zrotation
						JOINT RightHand
						{
							OFFSET -9.88337 -0.00004 0.00000
							CHANNELS 3 Xrotation Yrotation Zrotation
							JOINT RightHandThumb
							{
								OFFSET 0.00000 0.00000 0.00000
								CHANNELS 3 Xrotation Yrotation Zrotation
								End Site
								{
									OFFSET 0.00000 0.00000 3.93700
								}
							}
							JOINT R_Wrist_End
							{
								OFFSET -5.39369 -0.00002 0.00000
								CHANNELS 3 Xrotation Yrotation Zrotation
							}
						}
					}
				}
			}
		}
	}
}
MOTION
Frames: 14
Frame Time: 0.066664
 65.1130 36.8427 -4.9202 91.5760 88.7063 -98.3557 6.1967 3.7054 13.6082 24.5119 0.0000 0.0000 8.6766 -14.7134 -10.0021 -35.9740 0.0000 0.0000 -21.7303 -8.0573 4.1730 27.4320 -0.0000 0.0000 18.6210 -4.9957 21.8753 -12.6359 0.0000 0.0000 -1.1081 -4.8511 1.8111 12.8003 -8.5473 0.7228 -10.0051 10.6130 3.4769 -4.0071 -5.8172 -1.5394 -12.3549 20.6633 26.2329 -6.2523 -35.2603 -85.9023 -0.0003 -50.1655 -0.0001 -17.4883 -31.2128 23.5414 -0.0000 0.0000 -0.0000 -0.0000 0.0000 -0.0000 21.7615 -22.4978 -9.7286 -15.9510 41.4814 88.7851 -0.0000 8.6574 0.0000 76.5697 -63.6682 -108.6814 -0.0000 -0.0000 0.0000 -0.0000 -0.0000 0.0000
 62.4282 36.7886 -5.4829 32.9474 86.6235 -40.0398 -0.5863 6.6994 13.4197 29.3288 0.0000 0.0000 3.1943 -14.8684 -12.0670 -28.4852 0.0000 -0.0000 -22.1418 -6.9354 4.7813 17.8035 0.0000 0.0000 24.5051 -4.3034 25.1561 -4.5285 -0.0000 -0.0000 -0.7184 -4.2442 1.3597 12.8977 -8.0541 0.3170 -10.1410 11.6665 3.6914 -5.5847 -5.2134 -0.4916 -11.5070 21.1429 25.4506 -5.4733 -35.1079 -85.1950 -0.0002 -44.8034 -0.0001 -17.1314 -31.5960 24.2929 -0.0000 0.0000 -0.0000 -0.0000 0.0000 -0.0000 21.5265 -22.0861 -8.4450 -18.6249 40.1688 90.1865 -0.0000 9.2166 0.0000 77.7436 -66.7405 -112.7783 -0.0000 0.0000 -0.0000 -0.0000 0.0000 -0.0000
 60.5256 37.1367 -6.1240 7.4918 84.4044 -13.1488 -3.1186 9.5084 11.5311 29.9402 -0.0000 0.0000 5.8249 -16.2211 -10.5701 -28.4301 -0.0000 -0.0000 -16.3892 -9.9372 3.0210 9.9288 0.0000 -0.0000 18.1050 1.4628 26.6833 -0.9269 -0.0000 0.0000 -0.7360 -3.9481 1.0258 12.1735 -8.1027 -0.9786 -9.9480 12.3387 3.4906 -3.8691 -3.9204 -1.0715 -10.9591 21.6839 25.0309 -2.1560 -34.6592 -85.3193 -0.0001 -35.1242 -0.0000 -17.8600 -30.8046 23.0644 -0.0000 -0.0000 0.0000 -0.0000 -0.0000 0.0000 21.0486 -22.0078 -9.3445 -19.3546 37.1115 91.4670 -0.0000 12.9064 0.0000 74.0277 -69.1158 -116.4077 -0.0000 0.0000 -0.0000 -0.0000 0.0000 -0.0000
 59.0330 37.5746 -6.6243 -6.0317 82.7387 1.2010 -3.7141 9.2571 9.6345 29.2252 -0.0000 0.0000 9.9200 -14.9427 -9.1253 -29.5877 0.0000 -0.0000 -10.7715 -8.3381 1.3272 17.7282 -0.0000 0.0000 9.7951 -5.1483 23.9145 -7.7015 0.0000 0.0000 -1.2032 -3.5210 1.0394 11.9690 -7.7080 -1.1958 -10.0529 12.6580 3.6220 -2.8160 -3.3297 -2.1925 -10.0161 23.3153 24.7506 0.8825 -33.3921 -86.5170 -0.0001 -28.2389 -0.0000 -14.9076 -30.6100 24.1154 -0.0000 -0.0000 0.0000 -0.0000 -0.0000 0.0000 20.8541 -21.8143 -9.8150 -19.8268 35.2334 91.3594 -0.0001 15.8469 0.0000 70.5137 -70.0650 -118.9590 -0.0000 0.0000 -0.0000 -0.0000 0.0000 -0.0000
 57.6135 37.7619 -6.9583 -13.8039 82.3658 9.8345 -4.2850 7.7736 7.9265 28.3901 -0.0000 0.0000 11.7170 -13.4484 -8.9145 -29.3305 0.0000 0.0000 -3.8644 -3.6262 -0.1458 27.6789 -0.0000 0.0000 5.2751 -9.9303 22.3524 -7.5905 0.0000 0.0000 -1.8151 -3.0692 0.4962 11.7199 -7.0916 -0.7254 -10.1109 12.3057 3.9353 -2.5939 -3.8315 -2.5776 -8.9114 24.4582 24.5436 5.7393 -32.3730 -86.5639 -0.0001 -27.3146 -0.0000 -17.3766 -30.7843 22.8731 -0.0000 0.0000 -0.0000 -0.0000 0.0000 -0.0000 20.3430 -21.4190 -9.7164 -20.7304 33.6920 90.8484 -0.0001 15.9366 0.0000 67.8998 -70.6509 -120.1945 -0.0000 0.0000 -0.0000 -0.0000 0.0000 -0.0000
 56.1084 37.7214 -7.1525 -20.6622 82.8267 17.9975 -6.0199 7.1322 6.6947 28.6272 -0.0000 0.0000 12.4769 -14.3955 -9.3957 -27.8002 0.0000 0.0000 4.2667 -0.0937 -1.7879 33.1740 0.0000 0.0000 7.7730 -8.8387 24.3039 -13.5956 0.0000 0.0000 -2.2385 -2.6419 -0.2989 11.0795 -6.6133 -0.6498 -10.1056 11.5291 4.1705 -2.2476 -4.8465 -2.3337 -7.5773 25.4849 24.3641 11.2300 -34.1243 -85.3600 -0.0001 -29.6021 -0.0000 -22.1381 -31.6257 21.4544 -0.0000 0.0000 -0.0000 -0.0000 0.0000 -0.0000 19.7834 -21.1543 -9.3888 -22.1805 32.2272 90.6967 -0.0001 15.3263 0.0000 68.4106 -70.8708 -120.3520 -0.0000 0.0000 -0.0000 -0.0000 0.0000 -0.0000
 54.3655 37.6504 -7.2877 -23.0889 82.9022 21.4266 -8.8570 7.3659 6.0369 29.1344 0.0000 0.0000 13.4511 -15.3089 -10.0288 -25.3076 0.0000 -0.0000 10.8745 -2.1128 -4.0360 34.0675 -0.0000 0.0000 16.2160 -3.9423 27.0773 -12.2483 -0.0000 -0.0000 -2.7535 -1.9872 -0.2652 10.6561 -5.9716 -0.7178 -10.3326 10.5294 3.8334 -1.2195 -5.4363 -2.4905 -6.9077 26.5887 23.6509 15.2506 -34.0986 -85.0709 -0.0001 -29.7730 -0.0000 -27.0619 -32.2928 20.5447 -0.0000 0.0000 -0.0000 -0.0000 0.0000 -0.0000 19.0490 -20.9326 -9.6057 -23.7342 31.2206 91.0202 -0.0001 16.4675 0.0000 66.3675 -71.0407 -120.5617 -0.0000 0.0000 -0.0000 -0.0000 0.0000 -0.0000
 52.2301 37.5650 -7.2718 -20.2496 82.0843 18.7639 -12.1571 7.1059 6.2892 28.8886 0.0000 0.0000 14.8365 -14.8541 -10.6674 -23.5723 0.0000 -0.0000 14.9222 -4.2966 -5.0307 30.3550 0.0000 0.0000 20.7072 0.2251 26.2836 -11.2249 -0.0000 -0.0000 -3.2723 -1.2024 0.2426 11.0626 -5.1063 -0.3290 -10.4971 10.1889 3.6148 -0.8096 -5.6464 -3.2315 -6.3718 27.7728 22.9336 16.1024 -32.5908 -86.9777 -0.0001 -27.5517 -0.0000 -27.1868 -32.9342 21.0384 -0.0000 0.0000 -0.0000 -0.0000 0.0000 -0.0000 18.1089 -20.0400 -9.9727 -25.9694 30.2654 91.6266 -0.0001 18.3176 0.0000 64.7184 -70.8336 -120.4647 -0.0000 0.0000 -0.0000 -0.0000 0.0000 -0.0000
 49.5479 37.3116 -7.0438 -13.3094 81.6944 11.7866 -15.8572 5.3189 6.7412 26.7732 -0.0000 0.0000 15.4363 -12.7421 -12.7146 -19.0841 0.0000 0.0000 15.9507 -4.8127 -3.9906 22.1538 -0.0000 0.0000 22.6046 1.5393 16.6282 -27.4870 0.0000 -0.0000 -3.4859 -0.8691 0.5133 11.7981 -4.6636 0.1294 -10.7434 10.1969 3.4896 -0.9258 -5.7237 -3.5334 -6.5303 27.9317 22.3001 15.5376 -31.7167 -88.9654 -0.0001 -25.7234 -0.0000 -27.1249 -32.9414 20.1307 -0.0000 -0.0000 0.0000 -0.0000 -0.0000 0.0000 16.9258 -18.4399 -9.6604 -29.8901 31.1393 92.4311 -0.0001 18.7693 0.0000 62.7806 -70.3373 -119.2136 -0.0000 0.0000 -0.0000 -0.0000 0.0000 -0.0000
 46.2062 36.8291 -6.7678 2.9664 82.6573 -3.3668 -20.1464 1.0874 5.7437 21.1335 -0.0000 0.0000 17.9498 -9.8368 -15.9075 -13.2411 -0.0000 0.0000 12.0871 -4.4943 -2.9076 20.4449 -0.0000 0.0000 13.9334 -1.7055 18.3284 -33.5764 0.0000 0.0000 -2.8920 -1.0057 0.3781 12.0216 -4.9042 -0.2537 -10.8489 9.8587 2.7933 -3.6915 -5.5864 -3.7326 -7.2953 27.3795 21.4543 12.7655 -32.4701 -89.3078 -0.0001 -26.1011 -0.0000 -26.2032 -31.7215 18.3791 -0.0000 0.0000 -0.0000 -0.0000 0.0000 -0.0000 15.6956 -16.2094 -9.8027 -35.4311 32.5141 93.9665 -0.0001 18.0069 0.0000 61.5827 -70.0354 -119.0445 -0.0000 0.0000 -0.0000 -0.0000 0.0000 -0.0000
 42.9548 36.5388 -6.3526 17.4949 84.0951 -19.3182 -19.3926 4.7216 8.1633 6.7465 -0.0000 -0.0000 21.6493 -13.3161 -22.1970 -0.7245 0.0000 -0.0000 6.1835 -6.2397 0.3097 23.2560 0.0000 0.0000 4.7439 -2.9615 18.9014 -25.5953 0.0000 -0.0000 -2.3661 -0.7719 1.9882 13.5888 -4.6389 0.0704 -10.4001 8.9290 2.1445 -8.1719 -6.1355 -4.4070 -8.3137 26.0942 21.2674 7.6709 -33.1643 -88.7496 -0.0001 -29.4257 -0.0000 -20.0609 -31.4245 18.9080 -0.0000 0.0000 -0.0000 -0.0000 0.0000 -0.0000 15.6608 -14.7008 -11.0430 -38.9656 32.7444 94.9162 -0.0001 19.1645 0.0000 57.6896 -70.5884 -120.6126 -0.0000 0.0000 -0.0000 -0.0000 0.0000 -0.0000
 40.5800 36.8389 -6.0263 31.7743 85.5751 -34.3756 -15.1057 11.0382 8.6067 4.0265 -0.0000 0.0000 9.7072 -13.8384 -19.6183 -11.5792 -0.0000 -0.0000 1.4028 -8.2167 1.4819 24.8357 -0.0000 0.0000 5.3250 -0.8584 19.2942 -23.8484 0.0000 0.0000 -2.4120 -1.5074 2.4030 13.4434 -5.2947 0.3880 -10.3922 8.6629 2.0539 -7.6887 -6.4481 -3.8708 -9.1437 25.1892 21.5365 5.2349 -33.8388 -87.1065 -0.0001 -34.1949 -0.0000 -16.4461 -33.6149 23.8326 -0.0000 -0.0000 0.0000 -0.0000 -0.0000 0.0000 15.8924 -14.9617 -10.6316 -38.8472 35.0381 94.2558 -0.0001 19.4289 0.0000 61.1617 -69.7108 -119.1139 -0.0000 0.0000 -0.0000 -0.0000 0.0000 -0.0000
 38.6998 37.4755 -5.7666 40.9551 86.5336 -44.2175 -7.8879 11.3725 9.3668 11.8172 -0.0000 0.0000 2.6218 -3.0207 -15.4879 -11.4536 0.0000 0.0000 -1.3947 -9.4634 2.5910 23.9886 -0.0000 0.0000 10.5618 -0.5794 18.2693 -24.4186 0.0000 -0.0000 -2.0142 -2.1869 2.5459 11.8924 -6.0123 0.3495 -10.7641 8.4205 2.0255 -6.5138 -6.6376 -3.3775 -9.9121 23.7673 22.3988 3.1841 -33.7952 -86.0318 -0.0002 -38.1774 -0.0001 -18.0522 -33.8967 24.3498 -0.0000 0.0000 -0.0000 -0.0000 0.0000 -0.0000 16.5212 -16.3133 -10.9067 -35.5396 34.6905 94.4590 -0.0001 19.1103 0.0000 60.6790 -70.9467 -119.9908 -0.0000 0.0000 -0.0000 -0.0000 0.0000 -0.0000
 36.8266 37.7892 -5.6980 43.8863 87.0930 -47.8001 -0.2638 7.1139 10.5954 21.9846 -0.0000 0.0000 -0.0484 -0.9916 -13.6076 -12.5371 -0.0000 0.0000 -4.5267 -8.0753 3.6462 24.2243 0.0000 0.0000 13.8874 -1.7509 17.9309 -24.4091 0.0000 0.0000 -1.9158 -2.8031 2.8065 11.6772 -6.6731 0.2529 -10.7772 8.6547 1.9978 -7.3402 -6.4457 -3.4919 -10.7655 22.5261 23.0612 0.2626 -34.3616 -84.8580 -0.0002 -42.8712 -0.0001 -18.9991 -34.2351 23.9495 -0.0000 0.0000 -0.0000 -0.0000 0.0000 -0.0000 17.2839 -17.0400 -11.5434 -31.9749 36.9222 93.4364 -0.0001 18.7967 0.0000 62.1250 -70.0682 -118.7585 -0.0000 0.0000 -0.0000 -0.0000 0.0000 -0.0000
